<svg class="icon-color" width="41" height="41" viewBox="0 0 41 41" fill="none"
  xmlns="http://www.w3.org/2000/svg">
  <path d="M20.5451 41.0001H20.4549C9.17619 41.0001 0 31.8239 0 20.5452V20.455C0 9.17622 9.17619 0 20.4549 0H20.5451C31.8239 0 41.0001 9.17622 41.0001 20.455V20.5452C41.0001 31.8239 31.8239 41.0001 20.5451 41.0001ZM20.4549 1.38781C9.94087 1.38781 1.38781 9.9409 1.38781 20.455V20.5452C1.38781 31.0592 9.94087 39.6123 20.4549 39.6123H20.5451C31.0592 39.6123 39.6123 31.0592 39.6123 20.5452V20.455C39.6123 9.9409 31.0592 1.38781 20.5451 1.38781H20.4549Z" fill="#1A1A1A"/>
  <g clip-path="url(#clip0_252_132)">
    <path d="M31.7641 20.4713C31.7641 19.6801 31.7014 18.8846 31.5676 18.1062H20.8369V22.5883H26.9819C26.7269 24.0338 25.679 25.489 24.4793 26.3016L24.7078 29.0334L28.1217 29.0334C30.2745 27.0062 31.7641 24.0124 31.7641 20.4713Z" fill="#1A1A1A"/>
    <path d="M20.5608 31.7653C23.6376 31.7653 26.2324 30.7678 28.1229 29.0459L24.4805 26.3017C23.4577 26.9888 22.1034 27.3075 20.565 27.3075C17.5888 27.3075 14.914 25.3249 14.0086 22.6593H10.3662V25.5608C12.3028 29.3646 16.2474 31.7653 20.5608 31.7653Z" fill="#1A1A1A"/>
    <path d="M14.0077 22.6581C13.4858 21.2728 13.7135 19.4904 14.2353 18.1051L14.463 15.3733L10.3653 15.1456C8.59826 18.2973 8.55764 22.2382 10.3247 25.3899L14.0077 22.6581Z" fill="#1A1A1A"/>
    <path d="M20.7804 13.4562C22.4419 13.4313 24.0477 14.0353 25.251 15.144L28.5782 11.9297C26.4714 10.0184 23.6751 8.96766 20.7804 9.00076C16.3741 9.00076 12.3446 11.3406 10.3662 15.1465L14.2373 18.106C15.1579 15.4377 17.7401 13.4562 20.7804 13.4562Z" fill="#1A1A1A"/>
  </g>
  <defs>
    <clipPath id="clip0_252_132">
      <rect width="22.765" height="22.765" fill="white" transform="translate(9 9)"/>
    </clipPath>
  </defs>
</svg>