<svg xmlns="http://www.w3.org/2000/svg" width="41" height="41" viewBox="0 0 41 41" fill="none">
  <path d="M20.5451 41.0001H20.4549C9.1762 41.0001 0 31.8239 0 20.5451V20.4549C0 9.17619 9.1762 0 20.4549 0H20.5451C31.8239 0 41.0001 9.17619 41.0001 20.4549V20.5451C41.0001 31.8239 31.8239 41.0001 20.5451 41.0001ZM20.4549 1.38781C9.94089 1.38781 1.38781 9.94087 1.38781 20.4549V20.5451C1.38781 31.0592 9.94089 39.6123 20.4549 39.6123H20.5451C31.0592 39.6123 39.6123 31.0592 39.6123 20.5451V20.4549C39.6123 9.94087 31.0592 1.38781 20.5451 1.38781H20.4549Z" fill="#1A1A1A"/>
  <path d="M26.6287 8.75391H14.3715C10.9853 8.75391 8.23047 11.5087 8.23047 14.895V26.1085C8.23047 29.4947 10.9853 32.2495 14.3715 32.2495H26.6287C30.0149 32.2495 32.7697 29.4947 32.7697 26.1085V14.895C32.7697 11.5087 30.0149 8.75391 26.6287 8.75391ZM10.3968 14.895C10.3968 12.7036 12.1802 10.9203 14.3715 10.9203H26.6287C28.82 10.9203 30.6034 12.7036 30.6034 14.895V26.1085C30.6034 28.2998 28.82 30.0832 26.6287 30.0832H14.3715C12.1802 30.0832 10.3968 28.2998 10.3968 26.1085V14.895Z" fill="#1A1A1A"/>
  <path d="M20.4993 26.2116C23.6483 26.2116 26.2116 23.6497 26.2116 20.4994C26.2116 17.349 23.6497 14.7871 20.4993 14.7871C17.349 14.7871 14.7871 17.349 14.7871 20.4994C14.7871 23.6497 17.349 26.2116 20.4993 26.2116ZM20.4993 16.9549C22.4548 16.9549 24.0452 18.5453 24.0452 20.5007C24.0452 22.4562 22.4548 24.0466 20.4993 24.0466C18.5439 24.0466 16.9535 22.4562 16.9535 20.5007C16.9535 18.5453 18.5439 16.9549 20.4993 16.9549Z" fill="#1A1A1A"/>
  <path d="M26.7402 15.711C27.5882 15.711 28.2793 15.0212 28.2793 14.1719C28.2793 13.3226 27.5896 12.6328 26.7402 12.6328C25.8909 12.6328 25.2012 13.3226 25.2012 14.1719C25.2012 15.0212 25.8909 15.711 26.7402 15.711Z" fill="#1A1A1A"/>
</svg>