<svg xmlns="http://www.w3.org/2000/svg" width="26" height="26" viewBox="0 0 26 26" fill="none">
  <g clip-path="url(#clip0_252_141)">
    <path d="M7.33291 5.58594C11.3828 5.58594 14.6656 8.89165 14.6656 12.9692C14.6656 17.0467 11.3825 20.3521 7.33291 20.3521C3.28329 20.3521 0 17.0467 0 12.9692C0 8.89165 3.28304 5.58594 7.33291 5.58594ZM19.043 6.01843C21.068 6.01843 22.7095 9.13007 22.7095 12.9692H22.7097C22.7097 16.8073 21.0682 19.9199 19.0433 19.9199C17.0183 19.9199 15.3768 16.8073 15.3768 12.9692C15.3768 9.13106 17.0181 6.01843 19.043 6.01843ZM24.7105 6.7424C25.4225 6.7424 26 9.53017 26 12.9692C26 16.4072 25.4228 19.1959 24.7105 19.1959C23.9982 19.1959 23.4213 16.4079 23.4213 12.9692C23.4213 9.53042 23.9985 6.7424 24.7105 6.7424Z" fill="#1A1A1A"/>
  </g>
  <defs>
    <clipPath id="clip0_252_141">
      <rect width="26" height="26" fill="white"/>
    </clipPath>
  </defs>
</svg>