<svg xmlns="http://www.w3.org/2000/svg" width="41" height="41" viewBox="0 0 41 41" fill="none">
  <path d="M20.5451 41.0001H20.4549C9.1762 41.0001 0 31.8239 0 20.5452V20.4549C0 9.17619 9.1762 0 20.4549 0H20.5451C31.8239 0 41.0001 9.17619 41.0001 20.4549V20.5452C41.0001 31.8239 31.8239 41.0001 20.5451 41.0001ZM20.4549 1.38781C9.94089 1.38781 1.38781 9.94087 1.38781 20.4549V20.5452C1.38781 31.0592 9.94089 39.6123 20.4549 39.6123H20.5451C31.0592 39.6123 39.6123 31.0592 39.6123 20.5452V20.4549C39.6123 9.94087 31.0592 1.38781 20.5451 1.38781H20.4549Z" fill="#1A1A1A"/>
  <path d="M32.7736 20.0034C32.4447 18.5115 31.0819 17.5442 29.7302 17.8426C29.2694 17.9439 28.8725 18.1812 28.5588 18.5059C26.7394 17.1847 24.2552 16.3118 21.481 16.1467L22.8092 10.6176L26.7491 11.56C26.8144 12.6369 27.7067 13.4904 28.8003 13.4904C29.8939 13.4904 30.8571 12.5689 30.8571 11.4337C30.8571 10.2984 29.9356 9.37695 28.8003 9.37695C27.9774 9.37695 27.2682 9.86127 26.9407 10.5607L22.6662 9.53793C22.3304 9.45743 21.9931 9.66423 21.9112 10.0001L20.4415 16.1189C17.3467 16.1356 14.5545 17.0307 12.5505 18.4643C12.4519 18.3727 12.3465 18.2881 12.2313 18.2131C11.0641 17.4679 9.45148 17.9078 8.62989 19.1943C7.80831 20.4822 8.08726 22.1295 9.25441 22.8748C9.3238 22.9192 9.39458 22.958 9.46675 22.9941C9.41956 23.2814 9.39458 23.5742 9.39458 23.8698C9.39458 28.1512 14.3782 31.6221 20.5262 31.6221C26.6742 31.6221 31.6578 28.1512 31.6578 23.8698C31.6578 23.5701 31.6315 23.2745 31.5829 22.9844C32.5308 22.4334 33.047 21.233 32.7764 20.0034H32.7736ZM14.8182 22.074C14.8182 21.0984 15.6092 20.3073 16.5848 20.3073C17.5605 20.3073 18.3515 21.0984 18.3515 22.074C18.3515 23.0497 17.5605 23.8407 16.5848 23.8407C15.6092 23.8407 14.8182 23.0497 14.8182 22.074ZM24.63 27.6516C24.0873 28.1443 22.5885 29.2934 20.3944 29.3142C20.375 29.3142 20.3541 29.3142 20.3347 29.3142C18.1114 29.3142 16.5932 28.154 16.0394 27.6516C15.8618 27.4906 15.8493 27.2158 16.0103 27.0396C16.1713 26.8619 16.4461 26.8495 16.6223 27.0104C17.1039 27.449 18.4348 28.4663 20.386 28.4482C22.2832 28.4302 23.578 27.4379 24.0471 27.0118C24.2247 26.8508 24.4981 26.8633 24.6591 27.041C24.8201 27.2186 24.8076 27.492 24.63 27.653V27.6516ZM24.4163 23.8407C23.4406 23.8407 22.6496 23.0497 22.6496 22.074C22.6496 21.0984 23.4406 20.3073 24.4163 20.3073C25.3919 20.3073 26.1829 21.0984 26.1829 22.074C26.1829 23.0497 25.3919 23.8407 24.4163 23.8407Z" fill="#1A1A1A"/>
</svg>