<svg xmlns="http://www.w3.org/2000/svg" width="41" height="41" viewBox="0 0 41 41" fill="none">
  <circle cx="20.5" cy="20.5" r="20.5" fill="#1A1A1A"/>
  <path d="M20.5451 40.933H20.4549C9.21325 40.933 0.0670752 31.7868 0.0670752 20.5452V20.4549C0.0670752 9.21323 9.21325 0.0670752 20.4549 0.0670752H20.5451C31.7868 0.0670752 40.933 9.21323 40.933 20.4549V20.5452C40.933 31.7868 31.7868 40.933 20.5451 40.933ZM20.4549 1.32074C9.90384 1.32074 1.32074 9.90383 1.32074 20.4549V20.5452C1.32074 31.0962 9.90384 39.6793 20.4549 39.6793H20.5451C31.0962 39.6793 39.6794 31.0962 39.6794 20.5452V20.4549C39.6794 9.90383 31.0962 1.32074 20.5451 1.32074H20.4549Z" fill="#D4F361" stroke="#D4F361" stroke-width="0.13415"/>
  <path d="M9.52247 20.5661L9.5206 20.5651C9.34413 20.6574 9.18987 20.7658 9.10954 20.9274C8.97714 21.1943 9.10108 21.5433 9.33482 21.7563C9.56875 21.9695 9.88333 22.0728 10.2014 22.1715L10.2015 22.1715C10.7962 22.3576 11.3932 22.538 11.9914 22.7138L11.9914 22.7138C12.7067 22.9243 13.4378 23.1258 14.162 23.0227L14.162 23.0227C14.9715 22.9084 15.6782 22.428 16.3642 21.9516C17.4124 21.2236 18.4605 20.4954 19.5085 19.7671L19.5088 19.7668C20.557 19.0385 21.6051 18.3101 22.6535 17.582L22.6536 17.582C22.7377 17.5238 22.837 17.4611 22.9407 17.4249C23.0449 17.3886 23.1595 17.3772 23.2688 17.4304M9.52247 20.5661L23.1521 18.3572L23.1939 18.3932C23.3107 18.258 23.4159 18.0677 23.4517 17.8883C23.4696 17.7984 23.4709 17.7072 23.4436 17.6262C23.4157 17.5434 23.3591 17.4744 23.2688 17.4304M9.52247 20.5661L9.54731 20.5536M9.52247 20.5661L9.54731 20.5536M23.2688 17.4304L23.2446 17.4801L23.2688 17.4304C23.2688 17.4304 23.2688 17.4304 23.2688 17.4304ZM9.54731 20.5536C9.59234 20.5311 9.63751 20.5097 9.68168 20.4893L9.68175 20.4893M9.54731 20.5536L9.68175 20.4893M9.68175 20.4893C10.4414 20.1375 11.211 19.8076 11.9805 19.4778L12.014 19.4635C12.0294 19.4618 12.0439 19.4574 12.0561 19.4529C12.0724 19.4469 12.0887 19.4391 12.1034 19.4316C12.1163 19.4251 12.1272 19.4192 12.1369 19.414C12.1522 19.4057 12.164 19.3994 12.1745 19.3952L12.1745 19.3952M9.68175 20.4893L12.1745 19.3952M12.1745 19.3952L12.1759 19.3946M12.1745 19.3952L12.1759 19.3946M12.1759 19.3946C12.206 19.3815 12.236 19.3688 12.2663 19.3559L12.2664 19.3559C12.2966 19.3431 12.3271 19.3301 12.3575 19.3169L12.3356 19.2663M12.1759 19.3946L13.4034 18.8693M13.4034 18.8693L13.4033 18.8693L13.0545 19.0184L12.7059 19.1673C12.7059 19.1673 12.7058 19.1673 12.7058 19.1673C12.6379 19.1969 12.5693 19.2262 12.5007 19.2555C12.4528 19.276 12.405 19.2964 12.3574 19.317L12.3356 19.2663M13.4034 18.8693L14.7979 18.272L13.4034 18.8693ZM12.3356 19.2663C12.3835 19.2456 12.4315 19.2251 12.4794 19.2046C12.5478 19.1754 12.616 19.1462 12.6839 19.1166L12.154 19.3439C12.1842 19.3308 12.2145 19.3179 12.2448 19.3051C12.275 19.2922 12.3053 19.2794 12.3356 19.2663ZM25.9584 13.4981L25.9582 13.4982C25.4953 13.6961 25.0321 13.8942 24.5689 14.0924L24.5632 14.0949L24.562 14.0954C24.0973 14.2942 23.6325 14.4931 23.1681 14.6916L21.7731 15.2883L20.378 15.8851L18.983 16.4818L17.588 17.0785C17.1231 17.2773 16.658 17.4763 16.1929 17.6753L16.1894 17.6768C15.7255 17.8753 15.2615 18.0738 14.7979 18.272L25.9584 13.4981ZM25.9584 13.4981C26.0111 13.4753 26.0648 13.4499 26.1183 13.4244L26.1348 13.4165C26.183 13.3935 26.2311 13.3705 26.2796 13.3487C26.3878 13.3002 26.4942 13.2596 26.5982 13.2414L26.5983 13.2413M25.9584 13.4981L26.5983 13.2413M26.5983 13.2413C26.694 13.2243 26.7881 13.1994 26.88 13.175L26.888 13.1728C26.9777 13.1489 27.0653 13.1255 27.1539 13.1088L27.154 13.1088L26.5983 13.2413ZM26.9175 27.6114C27.4794 23.9202 28.0403 20.2281 28.6012 16.5367L28.8271 15.0497C28.9185 14.449 28.979 13.7478 28.5473 13.3206C28.4571 13.2304 28.3486 13.1585 28.2309 13.1071M26.9175 27.6114L28.2309 13.1071M26.9175 27.6114C26.8307 28.1859 26.712 28.8163 26.2586 29.1795L26.9175 27.6114ZM28.2309 13.1071L28.2088 13.1576C28.2089 13.1577 28.2089 13.1577 28.209 13.1577L28.2309 13.1071ZM24.8697 29.3375C24.8697 29.3375 24.8696 29.3375 24.8696 29.3375L24.855 29.3907L24.8697 29.3375Z" fill="#D4F361" stroke="#D4F361" stroke-width="0.110397"/>
</svg>