<svg xmlns="http://www.w3.org/2000/svg" width="41" height="41" viewBox="0 0 41 41" fill="none">
  <path d="M20.5451 41.0001H20.4549C9.1762 41.0001 0 31.8239 0 20.5452V20.4549C0 9.17619 9.1762 0 20.4549 0H20.5451C31.8239 0 41.0001 9.17619 41.0001 20.4549V20.5452C41.0001 31.8239 31.8239 41.0001 20.5451 41.0001ZM20.4549 1.38781C9.94089 1.38781 1.38781 9.94087 1.38781 20.4549V20.5452C1.38781 31.0592 9.94089 39.6123 20.4549 39.6123H20.5451C31.0592 39.6123 39.6123 31.0592 39.6123 20.5452V20.4549C39.6123 9.94087 31.0592 1.38781 20.5451 1.38781H20.4549Z" fill="#1A1A1A"/>
  <path d="M9.52262 20.5043C9.56831 20.4814 9.61401 20.4597 9.65855 20.4392C10.4329 20.0806 11.2175 19.7448 12.0009 19.409C12.0432 19.409 12.114 19.3599 12.154 19.3439C12.2145 19.3177 12.275 19.2925 12.3356 19.2663C12.4521 19.216 12.5686 19.1669 12.6839 19.1166C12.9169 19.0173 13.1487 18.9179 13.3817 18.8186L14.7762 18.2213C15.7058 17.8238 16.6366 17.4252 17.5663 17.0278C18.4959 16.6304 19.4267 16.2318 20.3563 15.8343C21.286 15.4369 22.2168 15.0383 23.1464 14.6409C24.0761 14.2434 25.0069 13.8448 25.9365 13.4474C26.1432 13.3583 26.3671 13.2258 26.5886 13.187C26.7748 13.1539 26.9564 13.0899 27.1437 13.0545C27.4989 12.9871 27.8906 12.9597 28.2309 13.1071C28.3486 13.1585 28.4571 13.2304 28.5473 13.3206C28.979 13.7478 28.9185 14.449 28.8271 15.0497C28.191 19.2366 27.5548 23.4246 26.9175 27.6114C26.8307 28.1859 26.712 28.8163 26.2586 29.1795C25.8748 29.4867 25.3289 29.5209 24.855 29.3907C24.381 29.2594 23.963 28.9842 23.553 28.7135C21.8525 27.5874 20.1508 26.4613 18.4502 25.3352C18.0459 25.068 17.596 24.7185 17.6005 24.2331C17.6028 23.9408 17.7775 23.6804 17.9557 23.4485C19.4335 21.5207 21.5658 20.1959 23.1521 18.3572C23.376 18.0979 23.5519 17.6297 23.2446 17.4801C23.0619 17.391 22.8518 17.512 22.685 17.6274C20.5882 19.0835 18.4925 20.5408 16.3956 21.997C15.7115 22.4721 14.9943 22.9609 14.1697 23.0774C13.432 23.1824 12.6896 22.9769 11.9758 22.7667C11.3774 22.5908 10.7801 22.4104 10.185 22.2242C9.86868 22.126 9.54204 22.0198 9.29764 21.7971C9.05323 21.5744 8.91278 21.1998 9.06011 20.9029C9.15261 20.7167 9.33192 20.5991 9.52036 20.5031L9.52262 20.5043Z" fill="#1A1A1A"/>
</svg>