<svg xmlns="http://www.w3.org/2000/svg" width="41" height="41" viewBox="0 0 41 41" fill="none">
  <path d="M20.5451 41.0001H20.4549C9.1762 41.0001 0 31.8239 0 20.5452V20.4549C0 9.17619 9.1762 0 20.4549 0H20.5451C31.8239 0 41.0001 9.17619 41.0001 20.4549V20.5452C41.0001 31.8239 31.8239 41.0001 20.5451 41.0001ZM20.4549 1.38781C9.94089 1.38781 1.38781 9.94087 1.38781 20.4549V20.5452C1.38781 31.0592 9.94089 39.6123 20.4549 39.6123H20.5451C31.0592 39.6123 39.6123 31.0592 39.6123 20.5452V20.4549C39.6123 9.94087 31.0592 1.38781 20.5451 1.38781H20.4549Z" fill="#1A1A1A"/>
  <path d="M24.1206 24.7264C19.3644 24.7264 15.495 20.8556 15.4937 16.0995C15.495 14.8938 16.4767 13.9135 17.6797 13.9135C17.8034 13.9135 17.9257 13.9239 18.0429 13.9447C18.3007 13.9877 18.5455 14.0749 18.7707 14.2064C18.8033 14.2259 18.8254 14.2572 18.8306 14.2936L19.3332 17.4613C19.3397 17.4978 19.328 17.5356 19.3032 17.5629C19.0259 17.8702 18.6718 18.0915 18.2773 18.2022L18.0872 18.2556L18.1588 18.4391C18.8072 20.09 20.1274 21.409 21.7796 22.0599L21.9632 22.1329L22.0166 21.9428C22.1272 21.5483 22.3486 21.1941 22.6558 20.9168C22.678 20.896 22.7079 20.8856 22.7379 20.8856C22.7444 20.8856 22.7509 20.8856 22.7587 20.8869L25.9264 21.3894C25.9642 21.3959 25.9954 21.4168 26.015 21.4493C26.1452 21.6746 26.2324 21.9206 26.2767 22.1784C26.2975 22.293 26.3066 22.4141 26.3066 22.5404C26.3066 23.7447 25.3262 24.7251 24.1206 24.7264Z" fill="#1A1A1A"/>
  <path d="M32.5552 18.2478C32.2987 15.3496 30.9707 12.661 28.8159 10.6781C26.6481 8.68347 23.8359 7.58459 20.8947 7.58459C14.4395 7.58459 9.18729 12.8368 9.18729 19.292C9.18729 21.4585 9.78488 23.569 10.9163 25.4074L8.39307 30.9929L16.4719 30.1323C17.8767 30.7078 19.3636 30.9994 20.8934 30.9994C21.2957 30.9994 21.7084 30.9786 22.1225 30.9356C22.487 30.8965 22.8555 30.8393 23.2174 30.7664C28.6232 29.674 32.5695 24.8762 32.6008 19.3545V19.292C32.6008 18.9405 32.5852 18.5889 32.5539 18.2491L32.5552 18.2478ZM16.783 27.6807L12.3133 28.1572L13.6479 25.2004L13.381 24.8423C13.3614 24.8163 13.3419 24.7903 13.3198 24.7603C12.161 23.1602 11.5491 21.2697 11.5491 19.2933C11.5491 14.1401 15.7414 9.94769 20.8947 9.94769C25.7224 9.94769 29.8145 13.7143 30.209 18.5225C30.2299 18.7803 30.2416 19.0394 30.2416 19.2946C30.2416 19.3675 30.2403 19.4391 30.239 19.5159C30.14 23.8268 27.1286 27.488 22.9154 28.4202C22.5938 28.4918 22.2644 28.5465 21.9363 28.5816C21.5951 28.6207 21.2449 28.6402 20.8973 28.6402C19.6591 28.6402 18.4561 28.4006 17.3194 27.9267C17.1932 27.8759 17.0695 27.8213 16.9536 27.7653L16.7843 27.6833L16.783 27.6807Z" fill="#1A1A1A"/>
</svg>