<svg width="65" height="12" viewBox="0 0 65 12" fill="none" xmlns="http://www.w3.org/2000/svg">
<path d="M10.41 5.54935V6.07704C10.41 6.9234 10.2953 7.68308 10.0658 8.35608C9.83641 9.02908 9.51266 9.60267 9.09458 10.0768C8.6765 10.5459 8.17685 10.9053 7.59562 11.1552C7.01948 11.405 6.37962 11.5299 5.67602 11.5299C4.97753 11.5299 4.33766 11.405 3.75643 11.1552C3.1803 10.9053 2.68064 10.5459 2.25747 10.0768C1.83429 9.60267 1.50543 9.02908 1.2709 8.35608C1.04147 7.68308 0.926752 6.9234 0.926752 6.07704V5.54935C0.926752 4.69789 1.04147 3.93821 1.2709 3.27031C1.50034 2.5973 1.82409 2.02372 2.24217 1.54956C2.66535 1.07539 3.165 0.7134 3.74113 0.463572C4.32237 0.213745 4.96223 0.0888309 5.66073 0.0888309C6.36432 0.0888309 7.00419 0.213745 7.58032 0.463572C8.16155 0.7134 8.66121 1.07539 9.07928 1.54956C9.50246 2.02372 9.82877 2.5973 10.0582 3.27031C10.2927 3.93821 10.41 4.69789 10.41 5.54935ZM8.09272 6.07704V5.53405C8.09272 4.94262 8.03919 4.42257 7.93212 3.9739C7.82505 3.52523 7.66699 3.14794 7.45796 2.84203C7.24892 2.53612 6.99399 2.30669 6.69318 2.15373C6.39236 1.99568 6.04821 1.91665 5.66073 1.91665C5.27324 1.91665 4.92909 1.99568 4.62828 2.15373C4.33256 2.30669 4.08019 2.53612 3.87115 2.84203C3.66721 3.14794 3.5117 3.52523 3.40463 3.9739C3.29756 4.42257 3.24403 4.94262 3.24403 5.53405V6.07704C3.24403 6.66337 3.29756 7.18342 3.40463 7.63719C3.5117 8.08586 3.66976 8.4657 3.87879 8.77671C4.08783 9.08262 4.34276 9.3146 4.64357 9.47266C4.94439 9.63071 5.28854 9.70974 5.67602 9.70974C6.06351 9.70974 6.40766 9.63071 6.70847 9.47266C7.00929 9.3146 7.26166 9.08262 7.4656 8.77671C7.66954 8.4657 7.82505 8.08586 7.93212 7.63719C8.03919 7.18342 8.09272 6.66337 8.09272 6.07704ZM19.9315 9.58737V11.377H12.039V9.58737H19.9315ZM19.8168 1.51897L13.0561 11.377H11.4424V10.0615L18.2566 0.241786H19.8168V1.51897ZM19.029 0.241786V2.03901H11.4501V0.241786H19.029ZM22.44 0.241786H24.3825L27.2428 8.41726L30.103 0.241786H32.0456L28.0228 11.377H26.4627L22.44 0.241786ZM21.3922 0.241786H23.3271L23.6789 8.21077V11.377H21.3922V0.241786ZM31.1584 0.241786H33.101V11.377H30.8066V8.21077L31.1584 0.241786ZM39.7775 2.14608L36.749 11.377H34.3093L38.4468 0.241786H39.9993L39.7775 2.14608ZM42.2936 11.377L39.2574 2.14608L39.0127 0.241786H40.5805L44.7409 11.377H42.2936ZM42.1559 7.23186V9.02908H36.2748V7.23186H42.1559ZM45.7427 10.3139C45.7427 9.98761 45.8549 9.71484 46.0792 9.4956C46.3087 9.27636 46.612 9.16674 46.9893 9.16674C47.3666 9.16674 47.6674 9.27636 47.8918 9.4956C48.1212 9.71484 48.2359 9.98761 48.2359 10.3139C48.2359 10.6402 48.1212 10.913 47.8918 11.1322C47.6674 11.3515 47.3666 11.4611 46.9893 11.4611C46.612 11.4611 46.3087 11.3515 46.0792 11.1322C45.8549 10.913 45.7427 10.6402 45.7427 10.3139ZM52.7558 0.241786V11.377H50.4691V0.241786H52.7558ZM64.0515 5.54935V6.07704C64.0515 6.9234 63.9368 7.68308 63.7074 8.35608C63.4779 9.02908 63.1542 9.60267 62.7361 10.0768C62.318 10.5459 61.8184 10.9053 61.2371 11.1552C60.661 11.405 60.0211 11.5299 59.3175 11.5299C58.6191 11.5299 57.9792 11.405 57.398 11.1552C56.8218 10.9053 56.3222 10.5459 55.899 10.0768C55.4758 9.60267 55.147 9.02908 54.9124 8.35608C54.683 7.68308 54.5683 6.9234 54.5683 6.07704V5.54935C54.5683 4.69789 54.683 3.93821 54.9124 3.27031C55.1419 2.5973 55.4656 2.02372 55.8837 1.54956C56.3069 1.07539 56.8065 0.7134 57.3827 0.463572C57.9639 0.213745 58.6038 0.0888309 59.3023 0.0888309C60.0058 0.0888309 60.6457 0.213745 61.2218 0.463572C61.8031 0.7134 62.3027 1.07539 62.7208 1.54956C63.144 2.02372 63.4703 2.5973 63.6997 3.27031C63.9343 3.93821 64.0515 4.69789 64.0515 5.54935ZM61.7342 6.07704V5.53405C61.7342 4.94262 61.6807 4.42257 61.5736 3.9739C61.4666 3.52523 61.3085 3.14794 61.0995 2.84203C60.8904 2.53612 60.6355 2.30669 60.3347 2.15373C60.0339 1.99568 59.6897 1.91665 59.3023 1.91665C58.9148 1.91665 58.5706 1.99568 58.2698 2.15373C57.9741 2.30669 57.7217 2.53612 57.5127 2.84203C57.3087 3.14794 57.1532 3.52523 57.0462 3.9739C56.9391 4.42257 56.8856 4.94262 56.8856 5.53405V6.07704C56.8856 6.66337 56.9391 7.18342 57.0462 7.63719C57.1532 8.08586 57.3113 8.4657 57.5203 8.77671C57.7294 9.08262 57.9843 9.3146 58.2851 9.47266C58.5859 9.63071 58.9301 9.70974 59.3175 9.70974C59.705 9.70974 60.0492 9.63071 60.35 9.47266C60.6508 9.3146 60.9032 9.08262 61.1071 8.77671C61.3111 8.4657 61.4666 8.08586 61.5736 7.63719C61.6807 7.18342 61.7342 6.66337 61.7342 6.07704Z" fill="#232323"/>
</svg>
